<svg width="24" height="24" viewBox="0 0 24 24" fill="none" xmlns="http://www.w3.org/2000/svg">
<path d="M23.3124 11.723C22.9304 11.723 22.6248 12.0286 22.6248 12.4106V18.6652C22.6248 20.3664 21.2394 21.7467 19.5433 21.7467H4.45671C2.75552 21.7467 1.37521 20.3613 1.37521 18.6652V12.3087C1.37521 11.9267 1.06961 11.6211 0.687606 11.6211C0.305603 11.6211 0 11.9267 0 12.3087V18.6652C0 21.1253 2.0017 23.1219 4.45671 23.1219H19.5433C22.0034 23.1219 24 21.1202 24 18.6652V12.4106C24 12.0337 23.6944 11.723 23.3124 11.723Z" fill="white"/>
<path d="M11.5159 17.6616C11.6483 17.794 11.8266 17.8653 11.9998 17.8653C12.173 17.8653 12.3512 17.7991 12.4836 17.6616L16.8538 13.2915C17.1237 13.0215 17.1237 12.5886 16.8538 12.3186C16.5838 12.0487 16.1509 12.0487 15.8809 12.3186L12.6874 15.5173V1.56651C12.6874 1.18451 12.3818 0.878906 11.9998 0.878906C11.6178 0.878906 11.3122 1.18451 11.3122 1.56651V15.5173L8.11353 12.3186C7.84358 12.0487 7.41064 12.0487 7.14069 12.3186C6.87075 12.5886 6.87075 13.0215 7.14069 13.2915L11.5159 17.6616Z" fill="white"/>
</svg>
