<svg width="10" height="10" viewBox="0 0 10 10" fill="none" xmlns="http://www.w3.org/2000/svg">
<path d="M9.13121 7.71721C9.52214 8.10832 9.52214 8.74022 9.13121 9.13133C8.9362 9.32634 8.68022 9.4243 8.42406 9.4243C8.16808 9.4243 7.91209 9.32634 7.71709 9.13133L4.71214 6.12621L1.7072 9.13133C1.51219 9.32634 1.25621 9.4243 1.00023 9.4243C0.744064 9.4243 0.488083 9.32634 0.293076 9.13133C-0.0978546 8.74022 -0.0978546 8.10832 0.293076 7.71721L3.2982 4.71227L0.293076 1.70732C-0.0978546 1.31621 -0.0978546 0.684311 0.293076 0.293198C0.684189 -0.0977325 1.31609 -0.0977325 1.7072 0.293198L4.71214 3.29832L7.71709 0.293198C8.1082 -0.0977325 8.7401 -0.0977325 9.13121 0.293198C9.52214 0.684311 9.52214 1.31621 9.13121 1.70732L6.12608 4.71227L9.13121 7.71721Z" fill="#FAFAFA"/>
</svg>
