<svg width="24" height="24" viewBox="0 0 24 24" fill="none" xmlns="http://www.w3.org/2000/svg">
<path d="M20.7067 3.29455C18.9849 1.56848 16.1848 1.56848 14.463 3.29455L3.01558 14.7377C2.92608 14.8272 2.87067 14.9423 2.85363 15.0659L2.00551 21.3479C1.97994 21.5269 2.04387 21.7059 2.16746 21.8295C2.27401 21.9361 2.42317 22 2.57234 22C2.59791 22 2.62348 22 2.64905 21.9957L6.43361 21.4843C6.74899 21.4417 6.97061 21.1519 6.92799 20.8365C6.88537 20.5211 6.59557 20.2995 6.28019 20.3421L3.24572 20.7513L3.83812 16.37L8.44949 20.9814C8.55604 21.088 8.7052 21.1519 8.85437 21.1519C9.00353 21.1519 9.1527 21.0922 9.25925 20.9814L20.7067 9.53822C21.542 8.70289 22.0023 7.5948 22.0023 6.41426C22.0023 5.23371 21.542 4.12562 20.7067 3.29455ZM14.6846 4.70097L16.6067 6.62309L6.16085 17.069L4.23874 15.1469L14.6846 4.70097ZM8.85863 19.7625L6.97914 17.883L17.425 7.43711L19.3045 9.31661L8.85863 19.7625ZM20.1058 8.49406L15.5072 3.89548C16.0911 3.41388 16.8198 3.14965 17.587 3.14965C18.4607 3.14965 19.279 3.4906 19.8969 4.10431C20.5149 4.71802 20.8516 5.54057 20.8516 6.41426C20.8516 7.18566 20.5874 7.91018 20.1058 8.49406Z" fill="#7E7E7E"/>
<line x1="12.6" y1="21.4" x2="21.4" y2="21.4" stroke="#7E7E7E" stroke-width="1.2" stroke-linecap="round"/>
</svg>
